<svg aria-hidden="true" style="position: absolute; width: 0; height: 0; overflow: hidden;" version="1.1" xmlns="http://www.w3.org/2000/svg" xmlns:xlink="http://www.w3.org/1999/xlink">
<defs>
<symbol id="icon-Twitter" viewBox="0 0 32 32"><path d="M32 6.078c-1.19.522-2.458.868-3.78 1.036a6.523 6.523 0 002.886-3.626 13.11 13.11 0 01-4.16 1.588A6.574 6.574 0 0022.154 3c-3.632 0-6.556 2.948-6.556 6.562 0 .52.044 1.02.152 1.496-5.454-.266-10.28-2.88-13.522-6.862a6.605 6.605 0 00-.898 3.316 6.57 6.57 0 002.914 5.452 6.479 6.479 0 01-2.964-.808v.072c0 3.188 2.274 5.836 5.256 6.446a6.548 6.548 0 01-1.72.216 5.8 5.8 0 01-1.242-.112c.85 2.598 3.262 4.508 6.13 4.57a13.182 13.182 0 01-8.134 2.798c-.538 0-1.054-.024-1.57-.09A18.469 18.469 0 0010.064 29c12.072 0 18.672-10 18.672-18.668 0-.29-.01-.57-.024-.848A13.087 13.087 0 0032 6.078z"/></symbol>
<symbol id="icon-smartphone" viewBox="0 0 32 32">
<path  d="M23.467 0h-14.933c-1.765 0-3.2 1.34-3.2 2.987v25.889c0 1.647 1.435 2.987 3.2 2.987h14.933c1.765 0 3.2-1.34 3.2-2.987v-25.889c0-1.647-1.435-2.987-3.2-2.987zM8.533 1.991h14.933c0.589 0 1.067 0.446 1.067 0.996v20.91h-17.067v-20.91c0-0.549 0.478-0.996 1.067-0.996zM23.467 29.872h-14.933c-0.589 0-1.067-0.446-1.067-0.996v-2.987h17.067v2.987c0 0.55-0.478 0.996-1.067 0.996z"></path>
<path  d="M10.354 27.176c0.417 0.389 0.417 1.020 0 1.409s-1.092 0.389-1.508 0c-0.417-0.389-0.417-1.020 0-1.409s1.092-0.389 1.508 0z"></path>
</symbol>
<symbol id="icon-client-logo-6" viewBox="0 0 32 32">
<path d="M16.086 15.408c-0.15-0.219-0.222-0.479-0.205-0.74v-1.072c0-0.329 0.068-0.579 0.204-0.749s0.369-0.256 0.701-0.255c0.311 0 0.532 0.073 0.663 0.218 0.142 0.186 0.212 0.413 0.196 0.641v0.252h-0.557v-0.255c0.002-0.084-0.003-0.167-0.016-0.25-0.008-0.057-0.036-0.109-0.080-0.148-0.057-0.043-0.129-0.063-0.202-0.058-0.076-0.005-0.152 0.016-0.212 0.061-0.048 0.044-0.081 0.101-0.092 0.164-0.016 0.088-0.023 0.176-0.022 0.265v1.301c-0.009 0.126 0.016 0.251 0.071 0.365 0.028 0.039 0.066 0.069 0.111 0.089s0.095 0.026 0.144 0.021c0.071 0.006 0.142-0.016 0.197-0.059 0.045-0.043 0.075-0.098 0.083-0.158 0.013-0.086 0.019-0.174 0.017-0.261v-0.264h0.557v0.241c0.016 0.239-0.052 0.476-0.192 0.674-0.128 0.159-0.346 0.239-0.666 0.239s-0.562-0.085-0.699-0.262z"></path>
<path d="M18.404 15.419c-0.141-0.167-0.211-0.41-0.211-0.732v-1.128c0-0.319 0.070-0.56 0.211-0.723s0.376-0.245 0.705-0.244c0.327 0 0.561 0.081 0.702 0.244s0.212 0.405 0.212 0.723v1.128c0 0.319-0.071 0.563-0.214 0.731s-0.376 0.252-0.699 0.252-0.564-0.085-0.705-0.251zM19.368 15.148c0.050-0.105 0.073-0.219 0.067-0.334v-1.381c0.006-0.113-0.016-0.225-0.066-0.327-0.028-0.039-0.068-0.071-0.114-0.090s-0.097-0.026-0.147-0.019c-0.050-0.007-0.101 0-0.147 0.019s-0.086 0.050-0.114 0.090c-0.051 0.102-0.074 0.215-0.067 0.327v1.388c-0.007 0.115 0.016 0.229 0.067 0.334 0.032 0.035 0.073 0.063 0.117 0.083s0.094 0.029 0.143 0.029 0.098-0.010 0.143-0.029c0.045-0.019 0.085-0.048 0.117-0.083v-0.007z"></path>
<path d="M20.692 12.624h0.599l0.451 2.081 0.461-2.081h0.583l0.059 3.004h-0.431l-0.046-2.088-0.445 2.088h-0.346l-0.461-2.095-0.043 2.095h-0.436l0.054-3.004z"></path>
<path d="M23.517 12.624h0.933c0.538 0 0.807 0.284 0.807 0.853 0 0.545-0.283 0.817-0.849 0.816h-0.318v1.335h-0.576l0.003-3.004zM24.314 13.908c0.057 0.007 0.115 0.002 0.169-0.014s0.105-0.044 0.147-0.080c0.066-0.101 0.095-0.221 0.083-0.339 0.003-0.092-0.006-0.183-0.028-0.273-0.008-0.030-0.023-0.058-0.042-0.082s-0.045-0.045-0.073-0.060c-0.080-0.036-0.168-0.053-0.257-0.048h-0.224v0.898h0.224z"></path>
<path d="M26.087 12.624h0.619l0.635 3.004h-0.537l-0.126-0.693h-0.552l-0.129 0.693h-0.545l0.635-3.004zM26.616 14.588l-0.215-1.261-0.215 1.261h0.431z"></path>
<path d="M27.854 12.624h0.403l0.772 1.714v-1.714h0.478v3.004h-0.384l-0.777-1.789v1.789h-0.494l0.001-3.004z"></path>
<path d="M30.628 14.483l-0.642-1.854h0.54l0.392 1.191 0.368-1.191h0.529l-0.634 1.854v1.145h-0.553v-1.145z"></path>
<path d="M16.976 16.942v0.157h-0.47v1.221h-0.197v-1.221h-0.472v-0.157h1.14z"></path>
<path d="M18.45 18.32h-0.152c-0.015 0.001-0.031-0.004-0.043-0.013-0.012-0.008-0.020-0.019-0.025-0.032l-0.136-0.327h-0.652l-0.136 0.327c-0.004 0.014-0.011 0.026-0.021 0.037-0.012 0.009-0.027 0.014-0.043 0.013h-0.152l0.576-1.378h0.201l0.583 1.372zM17.496 17.808h0.544l-0.23-0.561c-0.017-0.042-0.031-0.086-0.043-0.13-0.008 0.026-0.015 0.051-0.022 0.073l-0.021 0.058-0.228 0.56z"></path>
<path d="M19.443 18.184c0.036 0.002 0.072 0.002 0.108 0 0.031-0.003 0.062-0.009 0.092-0.016 0.028-0.007 0.056-0.015 0.083-0.025 0.025-0.010 0.051-0.022 0.077-0.034v-0.31h-0.23c-0.006 0-0.011-0-0.017-0.002s-0.010-0.005-0.014-0.009c-0.004-0.003-0.007-0.007-0.009-0.011s-0.003-0.009-0.003-0.014v-0.106h0.447v0.528c-0.037 0.025-0.075 0.047-0.115 0.065s-0.084 0.035-0.128 0.047c-0.047 0.013-0.095 0.023-0.144 0.028-0.056 0.006-0.112 0.009-0.168 0.009-0.099 0.001-0.198-0.017-0.29-0.051-0.086-0.033-0.165-0.082-0.23-0.144-0.064-0.063-0.115-0.137-0.149-0.218-0.036-0.091-0.054-0.188-0.053-0.286-0.001-0.098 0.016-0.196 0.052-0.288 0.033-0.082 0.084-0.156 0.149-0.218s0.144-0.111 0.23-0.143c0.099-0.035 0.203-0.053 0.309-0.051 0.054-0 0.107 0.004 0.16 0.012 0.047 0.007 0.093 0.019 0.137 0.035 0.040 0.014 0.079 0.033 0.115 0.055 0.035 0.022 0.069 0.046 0.1 0.072l-0.055 0.085c-0.004 0.008-0.011 0.014-0.019 0.019s-0.017 0.007-0.026 0.007c-0.013-0-0.025-0.004-0.036-0.011-0.017-0.009-0.036-0.020-0.056-0.033-0.025-0.015-0.050-0.027-0.077-0.037-0.034-0.013-0.070-0.023-0.106-0.031-0.048-0.008-0.097-0.012-0.146-0.012-0.076-0.001-0.151 0.012-0.222 0.038-0.064 0.024-0.122 0.062-0.169 0.109-0.048 0.050-0.084 0.108-0.107 0.171-0.051 0.149-0.051 0.31 0 0.459 0.025 0.065 0.064 0.124 0.115 0.173 0.047 0.047 0.105 0.084 0.168 0.109 0.073 0.024 0.151 0.033 0.228 0.027z"></path>
<path d="M21.28 18.162h0.629v0.157h-0.822v-1.378h0.197l-0.005 1.221z"></path>
<path d="M22.564 18.319h-0.197v-1.378h0.197v1.378z"></path>
<path d="M23.297 16.948c0.012 0.006 0.022 0.015 0.030 0.025l0.842 1.039c-0.001-0.016-0.001-0.033 0-0.049 0-0.015 0-0.031 0-0.045v-0.982h0.172v1.383h-0.099c-0.015 0.001-0.029-0.002-0.043-0.008-0.012-0.007-0.023-0.016-0.031-0.026l-0.841-1.037c0 0.016 0 0.032 0 0.047s0 0.029 0 0.043v0.982h-0.165v-1.378h0.103c0.011 0 0.022 0.002 0.032 0.007z"></path>
<path d="M25.791 16.942v0.152h-0.698v0.455h0.566v0.146h-0.566v0.47h0.698v0.152h-0.901v-1.375h0.901z"></path>
<path d="M5.143 8.433l8.75 2.352v8.242l-8.75-2.351v-8.243zM4.582 7.73v9.346l9.871 2.654v-9.345l-9.871-2.655z"></path>
<path d="M9.872 24.068l-9.872-2.656v-9.345l9.872 2.655v9.346z"></path>
<path d="M4.745 8.327l8.636 2.322-3.672 3.478-8.637-2.324 3.674-3.477zM4.582 7.73l-4.582 4.337 9.872 2.655 4.581-4.337-9.871-2.655z"></path>
<path d="M10.428 23.543l4.025-3.811-4.025-1.083v4.895z"></path>
</symbol>
<symbol id="icon-client-logo-5" viewBox="0 0 32 32">
<path d="M2.434 24.557c0.125 0.155 0.191 0.349 0.188 0.548 0.006 0.13-0.016 0.26-0.067 0.379s-0.127 0.227-0.224 0.313c-0.242 0.184-0.542 0.273-0.845 0.253h-1.486v-3.474h1.455c0.287-0.019 0.572 0.062 0.806 0.231 0.094 0.079 0.168 0.179 0.217 0.292s0.071 0.235 0.065 0.358c0.009 0.192-0.051 0.38-0.169 0.531-0.113 0.138-0.269 0.234-0.443 0.271 0.197 0.036 0.375 0.141 0.502 0.297zM0.691 24.033h0.622c0.141 0.011 0.282-0.030 0.396-0.115 0.047-0.043 0.083-0.095 0.106-0.154s0.032-0.122 0.027-0.185c0.004-0.063-0.005-0.126-0.028-0.185s-0.058-0.112-0.104-0.155c-0.117-0.087-0.262-0.129-0.407-0.117h-0.612v0.911zM1.77 25.365c0.050-0.044 0.089-0.098 0.115-0.159s0.037-0.128 0.032-0.194c0.004-0.067-0.008-0.134-0.034-0.196s-0.066-0.117-0.117-0.161c-0.122-0.091-0.271-0.135-0.423-0.126h-0.652v0.955h0.661c0.149 0.009 0.296-0.034 0.417-0.12z"></path>
<path d="M5.409 26.051l-0.81-1.358h-0.304v1.358h-0.696v-3.474h1.318c0.332-0.023 0.661 0.082 0.918 0.295 0.184 0.189 0.295 0.437 0.313 0.701s-0.058 0.525-0.215 0.737c-0.163 0.187-0.385 0.312-0.629 0.353l0.862 1.388h-0.757zM4.295 24.22h0.57c0.396 0 0.593-0.175 0.593-0.526 0.004-0.072-0.007-0.143-0.032-0.21s-0.064-0.128-0.114-0.18c-0.125-0.104-0.286-0.155-0.448-0.141h-0.576l0.007 1.057z"></path>
<path d="M9.215 25.352h-1.388l-0.245 0.699h-0.73l1.274-3.435h0.789l1.269 3.435h-0.73l-0.24-0.699zM9.029 24.826l-0.507-1.466-0.507 1.466h1.014z"></path>
<path d="M13.98 26.051h-0.691l-1.55-2.362v2.362h-0.69v-3.474h0.69l1.55 2.376v-2.376h0.691v3.474z"></path>
<path d="M17.925 25.219c-0.143 0.262-0.361 0.476-0.625 0.613-0.301 0.153-0.635 0.228-0.972 0.219h-1.231v-3.474h1.231c0.336-0.009 0.67 0.065 0.972 0.214 0.265 0.134 0.483 0.345 0.625 0.606 0.142 0.283 0.216 0.595 0.216 0.911s-0.074 0.629-0.216 0.911zM17.134 25.136c0.197-0.231 0.306-0.525 0.306-0.829s-0.108-0.598-0.306-0.829c-0.238-0.209-0.549-0.315-0.865-0.295h-0.48v2.249h0.48c0.316 0.020 0.627-0.086 0.865-0.295z"></path>
<path d="M9.648 3.254c0 0 8.923 3.382 8.734 8.277v8.278c0 0-8.916-3.384-8.73-8.278l-0.003-8.277z"></path>
<path d="M26.331 17.871c1.685-1.164 3.634-1.886 5.669-2.098v-2.591c-2.344 0.907-4.333 2.552-5.669 4.689z"></path>
<path d="M25.318 18.652c1.379-2.788 3.77-4.94 6.682-6.013v-7.467c0 0-12.707 4.818-12.439 11.788v11.786c0 0 0.566-0.215 1.457-0.619 0-0.377 0-0.757 0.041-1.139 0.263-3.236 1.795-6.234 4.259-8.336z"></path>
<path d="M24.11 23.030c0.067-0.817 0.216-1.626 0.445-2.413-1.534 1.815-2.464 4.067-2.657 6.44-0.019 0.224-0.029 0.448-0.034 0.679 0.722-0.348 1.562-0.782 2.444-1.293-0.225-1.123-0.292-2.271-0.198-3.413z"></path>
<path d="M24.615 23.073c-0.085 1.032-0.032 2.072 0.157 3.090 3.472-2.086 7.373-5.308 7.222-9.203v-0.339c-2.48 0.279-4.801 1.367-6.605 3.099-0.422 1.073-0.683 2.203-0.774 3.353z"></path>
</symbol>
<symbol id="icon-client-logo-4" viewBox="0 0 32 32">
<path d="M6.248 11.174h-0.001c-0.862 0-1.561 0.681-1.561 1.521v0.001c0 0.84 0.699 1.521 1.561 1.521h0.001c0.862 0 1.561-0.681 1.561-1.521v-0.001c0-0.84-0.699-1.521-1.561-1.521z"></path>
<path d="M17.766 10.687c-0.002-1.167-0.479-2.285-1.325-3.11s-1.994-1.29-3.191-1.292v0c-1.197 0.002-2.345 0.467-3.192 1.292s-1.324 1.943-1.326 3.11v6.433c0 0 9.033-0.98 9.034-6.432v-0.001z"></path>
<path d="M1.524 19.231c0.002 0.812 0.334 1.59 0.923 2.163s1.387 0.898 2.22 0.9c0.833-0.002 1.631-0.326 2.219-0.9s0.921-1.351 0.923-2.163v-4.476c0 0-6.285 0.683-6.285 4.475zM4.666 20.033c-0.163 0-0.322-0.047-0.457-0.135s-0.241-0.213-0.303-0.36-0.079-0.308-0.047-0.463c0.032-0.156 0.11-0.298 0.225-0.411s0.262-0.189 0.421-0.219 0.325-0.015 0.475 0.046c0.15 0.061 0.279 0.163 0.369 0.295s0.139 0.287 0.139 0.446c0 0.106-0.021 0.21-0.062 0.308s-0.102 0.186-0.178 0.261c-0.076 0.075-0.167 0.134-0.267 0.175s-0.207 0.061-0.316 0.061v-0.003z"></path>
<path d="M11.082 19.536h-0.643v0.664h-0.335v-1.625h1.058v0.271h-0.723v0.42h0.643v0.27zM12.691 19.424c0 0.16-0.028 0.3-0.085 0.421s-0.138 0.214-0.243 0.279c-0.105 0.066-0.225 0.098-0.362 0.098-0.135 0-0.255-0.032-0.361-0.097s-0.188-0.157-0.246-0.277c-0.058-0.121-0.087-0.259-0.088-0.415v-0.080c0-0.16 0.029-0.301 0.086-0.422s0.139-0.215 0.244-0.28c0.106-0.066 0.226-0.098 0.362-0.098s0.256 0.033 0.36 0.098c0.106 0.065 0.187 0.158 0.244 0.28s0.087 0.262 0.087 0.421v0.073zM12.352 19.35c0-0.17-0.030-0.3-0.091-0.388s-0.148-0.133-0.261-0.133c-0.112 0-0.199 0.044-0.26 0.132s-0.092 0.215-0.093 0.384v0.079c0 0.166 0.030 0.295 0.091 0.386s0.149 0.137 0.263 0.137c0.112 0 0.199-0.044 0.259-0.132s0.091-0.217 0.091-0.386v-0.079zM13.777 19.773c0-0.063-0.022-0.112-0.067-0.145s-0.125-0.070-0.241-0.107c-0.116-0.038-0.208-0.075-0.276-0.112-0.185-0.1-0.277-0.234-0.277-0.403 0-0.088 0.025-0.166 0.074-0.234s0.121-0.123 0.213-0.162c0.093-0.039 0.197-0.058 0.313-0.058s0.22 0.021 0.31 0.064c0.091 0.042 0.161 0.101 0.211 0.177s0.076 0.164 0.076 0.261h-0.335c0-0.074-0.023-0.132-0.070-0.173s-0.113-0.063-0.198-0.063c-0.082 0-0.146 0.017-0.191 0.052s-0.068 0.080-0.068 0.136c0 0.053 0.026 0.097 0.079 0.133s0.132 0.069 0.235 0.1c0.19 0.057 0.329 0.128 0.416 0.213s0.131 0.19 0.131 0.317c0 0.141-0.053 0.251-0.16 0.331s-0.25 0.119-0.43 0.119c-0.125 0-0.239-0.023-0.342-0.068s-0.181-0.109-0.235-0.189c-0.054-0.080-0.080-0.172-0.080-0.277h0.336c0 0.179 0.107 0.269 0.321 0.269 0.080 0 0.142-0.016 0.186-0.048s0.067-0.078 0.067-0.136zM15.564 18.846h-0.498v1.354h-0.335v-1.354h-0.491v-0.271h1.324v0.271zM16.733 19.496h-0.643v0.435h0.754v0.269h-1.089v-1.625h1.087v0.271h-0.752v0.387h0.643v0.262zM17.643 19.605h-0.267v0.595h-0.335v-1.625h0.604c0.192 0 0.34 0.043 0.444 0.128s0.156 0.206 0.156 0.363c0 0.111-0.024 0.203-0.073 0.278s-0.12 0.132-0.218 0.176l0.352 0.664v0.016h-0.359l-0.305-0.595zM17.376 19.334h0.27c0.084 0 0.149-0.021 0.195-0.064s0.069-0.102 0.069-0.177c0-0.077-0.022-0.137-0.066-0.181s-0.11-0.066-0.2-0.066h-0.269v0.488zM19.405 19.627v0.573h-0.335v-1.625h0.634c0.122 0 0.229 0.022 0.321 0.067s0.164 0.108 0.214 0.191c0.050 0.082 0.075 0.175 0.075 0.28 0 0.159-0.055 0.285-0.164 0.377s-0.259 0.137-0.452 0.137h-0.294zM19.405 19.356h0.299c0.089 0 0.156-0.021 0.202-0.063s0.070-0.101 0.070-0.179c0-0.080-0.023-0.144-0.070-0.193s-0.112-0.074-0.194-0.076h-0.307v0.51zM21.524 19.496h-0.643v0.435h0.754v0.269h-1.089v-1.625h1.087v0.271h-0.752v0.387h0.643v0.262zM23.077 18.846h-0.498v1.354h-0.335v-1.354h-0.491v-0.271h1.324v0.271zM24.247 19.496h-0.643v0.435h0.754v0.269h-1.089v-1.625h1.087v0.271h-0.752v0.387h0.643v0.262zM25.156 19.605h-0.267v0.595h-0.335v-1.625h0.604c0.192 0 0.34 0.043 0.444 0.128s0.156 0.206 0.156 0.363c0 0.111-0.024 0.203-0.073 0.278s-0.12 0.132-0.218 0.176l0.352 0.664v0.016h-0.359l-0.305-0.595zM24.89 19.334h0.27c0.084 0 0.149-0.021 0.195-0.064s0.069-0.102 0.069-0.177c0-0.077-0.022-0.137-0.066-0.181s-0.11-0.066-0.2-0.066h-0.269v0.488zM26.857 19.773c0-0.063-0.022-0.112-0.067-0.145s-0.125-0.070-0.241-0.107c-0.116-0.038-0.208-0.075-0.276-0.112-0.185-0.1-0.277-0.234-0.277-0.403 0-0.088 0.025-0.166 0.074-0.234s0.121-0.123 0.213-0.162c0.093-0.039 0.197-0.058 0.313-0.058s0.22 0.021 0.31 0.064c0.091 0.042 0.161 0.101 0.211 0.177s0.076 0.164 0.076 0.261h-0.335c0-0.074-0.023-0.132-0.070-0.173s-0.113-0.063-0.198-0.063c-0.082 0-0.145 0.017-0.191 0.052s-0.068 0.080-0.068 0.136c0 0.053 0.026 0.097 0.079 0.133s0.132 0.069 0.235 0.1c0.19 0.057 0.329 0.128 0.416 0.213s0.131 0.19 0.131 0.317c0 0.141-0.053 0.251-0.16 0.331s-0.25 0.119-0.43 0.119c-0.125 0-0.239-0.023-0.341-0.068s-0.181-0.109-0.235-0.189c-0.054-0.080-0.080-0.172-0.080-0.277h0.336c0 0.179 0.107 0.269 0.321 0.269 0.080 0 0.142-0.016 0.186-0.048s0.067-0.078 0.067-0.136z"></path>
</symbol>
<symbol id="icon-client-logo-3" viewBox="0 0 32 32"><path d="M5.467 31.103a.088.088 0 01.059.025l.153.161c-.119.13-.266.234-.431.305a1.532 1.532 0 01-.611.109 1.496 1.496 0 01-.574-.102 1.25 1.25 0 01-.712-.733 1.618 1.618 0 01-.098-.571c-.003-.195.033-.39.105-.573.067-.166.168-.317.297-.445.131-.126.287-.224.459-.29.189-.07.389-.104.591-.102.188-.004.375.027.549.093.152.063.291.15.412.257l-.128.171a.122.122 0 01-.033.031.084.084 0 01-.052.013.123.123 0 01-.056-.018l-.069-.046-.096-.058a.978.978 0 00-.302-.103 1.238 1.238 0 00-.228-.018 1.12 1.12 0 00-.425.077.96.96 0 00-.333.215.997.997 0 00-.216.343c-.054.145-.08.298-.078.452-.002.156.024.312.078.46.047.126.119.242.212.341a.863.863 0 00.318.212c.125.049.259.074.394.073.078.001.156-.004.234-.015a.87.87 0 00.354-.122c.054-.034.104-.072.151-.113a.115.115 0 01.073-.029zM9.888 30.296c.002.194-.033.386-.103.567-.062.165-.161.315-.288.44s-.282.224-.452.289a1.711 1.711 0 01-1.164 0 1.281 1.281 0 01-.741-.735 1.61 1.61 0 010-1.136c.065-.166.164-.317.291-.447.128-.121.281-.216.45-.279.374-.139.79-.139 1.164 0 .17.066.324.165.452.29.126.127.224.276.289.44.071.183.106.376.103.571zm-.402 0a1.313 1.313 0 00-.073-.456.898.898 0 00-.528-.556 1.23 1.23 0 00-.846 0 .901.901 0 00-.531.556 1.465 1.465 0 000 .912.888.888 0 00.531.554c.273.097.573.097.846 0a.884.884 0 00.528-.554c.051-.147.076-.301.073-.456zM12.905 30.774l.04.102a3.46 3.46 0 01.044-.102.933.933 0 01.05-.1l.978-1.694c.019-.029.036-.047.056-.053a.217.217 0 01.08-.009h.289v2.755h-.343v-2.026-.086a.753.753 0 010-.095l-.984 1.718c-.012.026-.033.047-.058.063s-.054.023-.084.023h-.056a.154.154 0 01-.141-.086l-1.013-1.729V31.668h-.331v-2.75h.289a.24.24 0 01.08.009c.024.011.043.03.054.053l.999 1.696c.02.031.036.064.05.098zM16.586 30.638v1.032h-.383v-2.752h.854a1.67 1.67 0 01.477.06.912.912 0 01.337.171.699.699 0 01.191.27.905.905 0 01.065.352.84.84 0 01-.071.352.744.744 0 01-.207.275.936.936 0 01-.339.182 1.498 1.498 0 01-.461.064l-.463-.007zm0-.296h.463a.992.992 0 00.297-.042.617.617 0 00.214-.119.477.477 0 00.13-.182.579.579 0 00.046-.232.522.522 0 00-.172-.412.766.766 0 00-.515-.148h-.463v1.134zM21.731 31.673h-.302a.133.133 0 01-.084-.026.164.164 0 01-.05-.064l-.26-.666h-1.307l-.27.666a.145.145 0 01-.048.062.132.132 0 01-.086.027h-.302l1.148-2.756h.398l1.164 2.756zm-1.895-1.023h1.08l-.456-1.122a1.828 1.828 0 01-.086-.259l-.044.144c-.013.044-.029.084-.042.117l-.452 1.12zM23.385 28.931a.16.16 0 01.057.049l1.675 2.077v-.097V28.918h.343v2.756h-.191a.173.173 0 01-.078-.016.2.2 0 01-.061-.051l-1.673-2.075a.753.753 0 010 .095v2.048h-.343v-2.756h.203a.163.163 0 01.069.013zM28.281 30.577v1.094h-.383v-1.094l-1.059-1.66h.343a.124.124 0 01.082.024.256.256 0 01.052.062l.662 1.071a1.256 1.256 0 01.117.245l.05-.119c.019-.043.04-.085.065-.126l.653-1.078a.274.274 0 01.05-.058.116.116 0 01.082-.027h.346l-1.06 1.667zM12.715 24.293c.167.02.335.036.505.051 2.583-1.101 4.768-2.902 6.282-5.18s2.29-4.929 2.231-7.624l-2.846-2.712c.579 2.869.308 5.836-.782 8.567s-2.956 5.12-5.389 6.898z"/><path d="M11.699 24.167l.077.015c2.6-1.772 4.583-4.247 5.691-7.104s1.292-5.965.526-8.922l-4.054-3.862c1.64 3.175 2.3 6.728 1.903 10.246s-1.833 6.857-4.143 9.628zM25.448 14.725c-.689 2.961-2.362 5.632-4.77 7.616a15.094 15.094 0 01-2.266 1.55c1.961-.549 3.764-1.52 5.269-2.838s2.672-2.947 3.412-4.763l-1.644-1.565z"/><path d="M24.803 14.289l-2.341-2.23c-.045 2.543-.804 5.028-2.197 7.197s-3.372 3.943-5.729 5.137h.012c.525 0 1.05-.03 1.571-.089 2.203-.857 4.148-2.219 5.664-3.967s2.553-3.825 3.021-6.047zM12.038 2.664L9.245 0C6.748.919 4.601 2.535 3.084 4.636S.752 9.225.744 11.775c.009 2.818 1.005 5.552 2.829 7.77s4.372 3.793 7.242 4.476c2.561-2.973 4.061-6.647 4.281-10.488s-.851-7.648-3.058-10.869zM31.256 13.878c-.01-3.343-1.408-6.546-3.89-8.91s-5.843-3.696-9.352-3.706a13.655 13.655 0 00-4.741.841l17.099 16.291c.586-1.44.885-2.971.884-4.515z"/></symbol>
<symbol id="icon-client-logo-2" viewBox="0 0 32 32"><path d="M14.14 1.806h.084c.156 0 .324.016.49.03.734.052 1.463.162 2.179.329V.403a12.97 12.97 0 00-2.25-.358 18.11 18.11 0 00-.909-.044h-.263a18.35 18.35 0 00-4.515.582 18.3 18.3 0 00-4.79 1.948v17.475a19.484 19.484 0 014.566-1.779 19.948 19.948 0 013.833-.588h.051c.216-.011.433-.017.655-.019v-1.79a21.155 21.155 0 00-4.982.662 23.81 23.81 0 00-1.731.513l-.623.211V3.591l.266-.128a17.409 17.409 0 016.471-1.651.523.523 0 01.056 0c.248-.013.497-.019.741-.019h.28c.129.003.258.006.388.014z"/><path d="M18.53 3.651a15.823 15.823 0 01-2.606-.211c-.277-.047-.55-.103-.814-.164v17.275a13.82 13.82 0 003.425.404 18.396 18.396 0 004.515-.581 18.362 18.362 0 004.792-1.948V1.263a19.562 19.562 0 01-4.564 1.781 19.388 19.388 0 01-4.747.609zm6.907.299l.623-.21v13.63l-.266.128a17.055 17.055 0 01-3.184 1.144c-1.331.344-2.7.522-4.074.527-.411 0-.819-.017-1.214-.052l-.427-.038V5.062l.497.033c.361.023.735.034 1.141.034a21.098 21.098 0 005.173-.663 26.802 26.802 0 001.731-.518zM5.377 25.977a.912.912 0 00-.693-.28 1.034 1.034 0 00-.4.075.91.91 0 00-.512.518 1.023 1.023 0 00-.072.387v2.335c-.006.165.026.328.092.479.055.12.135.226.234.313a.815.815 0 00.321.166c.114.032.231.048.349.049a.972.972 0 00.892-.61.951.951 0 00.075-.372v-.261h-.61v.208a.528.528 0 01-.036.208.359.359 0 01-.089.131.365.365 0 01-.128.067.425.425 0 01-.128.022.314.314 0 01-.286-.125.548.548 0 01-.081-.313v-2.177a.738.738 0 01.075-.349.31.31 0 01.299-.141.33.33 0 01.272.131c.068.09.104.2.101.313v.202h.604v-.238a1.093 1.093 0 00-.279-.737zM9.002 25.95a1.091 1.091 0 00-.694-.257 1.075 1.075 0 00-.364.066.961.961 0 00-.559.518 1.099 1.099 0 00-.089.452v2.239a1.08 1.08 0 00.089.459c.055.12.136.227.237.313a.94.94 0 00.322.197c.117.043.24.065.364.066s.248-.022.364-.066c.121-.044.233-.111.33-.197a.948.948 0 00.23-.313c.063-.144.093-.301.089-.459v-2.239a1.08 1.08 0 00-.089-.452 1.015 1.015 0 00-.23-.327zm-.285 3.019a.405.405 0 01-.121.324.445.445 0 01-.574 0 .397.397 0 01-.121-.324V26.73a.405.405 0 01.121-.324.445.445 0 01.574 0 .397.397 0 01.121.324v2.239zM13.765 29.969V25.73h-.587l-.771 2.244h-.011l-.777-2.244h-.581v4.239h.606V27.39h.011l.593 1.823h.302l.598-1.823h.011v2.579h.606zM17.205 26.027a.84.84 0 00-.343-.232 1.363 1.363 0 00-.439-.066h-.9v4.239h.604v-1.656h.311c.188.009.376-.031.545-.116a.882.882 0 00.332-.324 1.02 1.02 0 00.139-.369c.024-.16.035-.321.033-.482a2.421 2.421 0 00-.059-.606.898.898 0 00-.223-.39zm-.311 1.292a.547.547 0 01-.056.221.346.346 0 01-.156.149.619.619 0 01-.285.053h-.276v-1.441h.311a.578.578 0 01.272.053.349.349 0 01.142.157.62.62 0 01.053.236v.282c0 .099.006.2 0 .291h-.006zM20.066 25.73h-.495l-.934 4.239h.604l.177-.911h.823l.177.911h.604l-.957-4.239zm-.557 2.751l.297-1.537h.011l.296 1.537h-.604zM23.969 28.283h-.011l-.912-2.554h-.581v4.239h.604v-2.549h.012l.923 2.549h.568v-4.239h-.604v2.554zM27.66 25.73l-.486 1.685h-.012l-.486-1.685h-.64l.83 2.447v1.792h.604v-1.792l.83-2.447h-.64zM3.692 31.166h.291v.817h.198v-.817h.29v-.167h-.778v.167zM6.14 30.998l-.381.984h.21l.081-.224h.392l.084.224h.215l-.391-.984h-.21zm-.032.595l.134-.365.134.365h-.268zM8.559 31.62h.227v.127a.38.38 0 01-.233.083.244.244 0 01-.209-.093.411.411 0 01-.073-.257c0-.219.095-.329.283-.329a.206.206 0 01.222.157l.195-.038c-.042-.192-.181-.289-.417-.289a.495.495 0 00-.344.127.494.494 0 00-.141.379.532.532 0 00.126.369.477.477 0 00.374.144.59.59 0 00.417-.157v-.388h-.427v.166zM11.029 30.998h-.199v.984h.69v-.167h-.49v-.817zM13.118 30.998h-.199v.984h.199v-.984zM15.161 31.656l-.403-.657h-.193v.984h.185v-.643l.395.643h.198v-.984h-.182v.657zM17.007 31.549h.49v-.167h-.49v-.216h.528v-.167h-.727v.984h.747v-.167h-.548v-.266zM21.484 31.387h-.388v-.388h-.198v.984h.198v-.43h.388v.43h.198v-.984h-.198v.388zM23.342 31.549h.492v-.167h-.492v-.216h.529v-.167h-.727v.984h.746v-.167h-.548v-.266zM25.861 31.549c.171-.027.258-.117.258-.274a.236.236 0 00-.096-.219.553.553 0 00-.288-.058h-.417v.984h.198v-.412h.039a.261.261 0 01.123.022.21.21 0 01.07.072l.215.313h.237l-.12-.192a.685.685 0 00-.218-.236zm-.2-.136h-.146v-.247h.156a.507.507 0 01.201.023c.014.013.026.029.033.046a.133.133 0 01-.005.111.128.128 0 01-.037.043.547.547 0 01-.201.023zM27.76 31.549h.49v-.167h-.49v-.216h.529v-.167h-.729v.984h.747v-.167h-.548v-.266z"/></symbol>
<symbol id="icon-client-logo-1" viewBox="0 0 32 32"><path d="M5.44 0l4.677 4.428h13.046v12.351l4.677 4.428V.001H5.44z"/><path d="M1.6 4.241v20.6h21.76v-8.188L10.255 4.247 1.6 4.242zm17.615 17.587H5.043V7.974h1.002V20.89h13.17v.938zM7.866 28.662l.523-1.078h.438l-.762 1.438v.837h-.397v-.837l-.764-1.438h.439l.523 1.078zm2.247.667h-.881l-.184.53h-.411l.859-2.275h.355l.861 2.275H10.3l-.186-.53zm-.77-.319h.659l-.33-.944-.33.944zm2.328.234c0-.105.029-.202.086-.289.057-.089.17-.193.339-.314-.088-.111-.151-.206-.186-.284s-.052-.154-.052-.227c0-.178.054-.319.162-.422s.254-.156.438-.156a.57.57 0 01.406.147.47.47 0 01.159.361.5.5 0 01-.072.262.879.879 0 01-.236.238l-.155.113.439.519a.9.9 0 00.095-.417h.33c0 .28-.066.51-.197.689l.334.395h-.441l-.128-.152c-.162.122-.356.183-.581.183s-.405-.059-.541-.178a.599.599 0 01-.202-.467zm.753.343a.58.58 0 00.359-.128l-.497-.586-.048.034c-.125.095-.188.203-.188.325 0 .105.034.191.102.256s.158.098.272.098zm-.209-1.466c0 .087.054.197.161.33l.173-.119.048-.039a.28.28 0 00.097-.22.2.2 0 00-.067-.152.236.236 0 00-.17-.064c-.074 0-.133.025-.177.075s-.066.113-.066.189zm4.133.997a.827.827 0 01-.269.569c-.156.135-.364.203-.623.203a.902.902 0 01-.48-.128c-.137-.086-.244-.209-.319-.367s-.114-.342-.117-.552v-.212c0-.215.038-.404.114-.567a.86.86 0 01.821-.511c.251 0 .453.068.606.205s.242.329.267.578h-.394c-.019-.164-.067-.281-.144-.353-.076-.073-.188-.109-.336-.109a.464.464 0 00-.397.189c-.092.125-.139.309-.141.552v.202c0 .246.044.433.131.563s.218.194.387.194c.155 0 .272-.035.35-.105s.128-.186.148-.348h.394zm2.17-.338c0 .223-.039.419-.116.588a.884.884 0 01-.331.388.905.905 0 01-.494.134.926.926 0 01-.494-.134.896.896 0 01-.334-.386 1.362 1.362 0 01-.119-.576v-.128c0-.222.039-.418.117-.588a.887.887 0 01.333-.389c.144-.091.308-.136.494-.136s.349.045.492.134c.144.088.255.217.333.384s.118.361.119.583v.127zm-.396-.118c0-.252-.048-.445-.144-.58a.468.468 0 00-.405-.202.467.467 0 00-.402.202c-.096.133-.145.322-.147.567v.131c0 .25.048.443.145.58a.473.473 0 00.406.205.464.464 0 00.403-.2c.095-.133.142-.328.142-.584v-.119z"/></symbol>
<symbol id="icon-client-Inst-2" viewBox="0 0 32 32"><path d="M31.969 9.408c-.075-1.7-.35-2.869-.744-3.882a7.806 7.806 0 00-1.851-2.838A7.867 7.867 0 0026.542.844C25.523.45 24.36.175 22.66.1 20.947.019 20.403 0 16.059 0s-4.888.019-6.595.094c-1.7.075-2.869.35-3.882.744a7.803 7.803 0 00-2.838 1.85A7.867 7.867 0 00.9 5.52C.506 6.539.231 7.702.156 9.402c-.081 1.713-.1 2.257-.1 6.601s.019 4.888.094 6.595c.075 1.7.35 2.869.744 3.882a7.895 7.895 0 001.85 2.838 7.867 7.867 0 002.832 1.844c1.019.394 2.182.669 3.882.744 1.706.075 2.25.094 6.595.094s4.888-.019 6.595-.094c1.7-.075 2.869-.35 3.882-.744a8.184 8.184 0 004.682-4.682c.394-1.019.669-2.182.744-3.882.075-1.707.094-2.251.094-6.595s-.006-4.888-.081-6.595zm-2.882 13.065c-.069 1.563-.331 2.407-.55 2.969a5.31 5.31 0 01-3.038 3.038c-.563.219-1.413.481-2.969.55-1.688.075-2.194.094-6.464.094s-4.782-.019-6.464-.094c-1.563-.069-2.407-.331-2.969-.55a4.926 4.926 0 01-1.838-1.194 4.974 4.974 0 01-1.194-1.838c-.219-.563-.481-1.413-.55-2.969-.075-1.688-.094-2.194-.094-6.464s.019-4.782.094-6.464c.069-1.563.331-2.407.55-2.969a4.868 4.868 0 011.2-1.838A4.974 4.974 0 016.639 3.55c.563-.219 1.413-.481 2.969-.55 1.688-.075 2.194-.094 6.464-.094 4.276 0 4.782.019 6.464.094 1.563.069 2.407.331 2.969.55a4.914 4.914 0 011.838 1.194 4.974 4.974 0 011.194 1.838c.219.563.481 1.413.55 2.969.075 1.688.094 2.194.094 6.464s-.019 4.77-.094 6.458z"/><path d="M16.059 7.783c-4.538 0-8.22 3.682-8.22 8.22s3.682 8.22 8.22 8.22c4.539 0 8.22-3.682 8.22-8.22s-3.682-8.22-8.22-8.22zm0 13.552a5.333 5.333 0 010-10.664 5.333 5.333 0 010 10.664zM26.524 7.458a1.919 1.919 0 11-3.838 0 1.919 1.919 0 013.838 0z"/></symbol>
<symbol id="icon-linkedin" viewBox="0 0 32 32"><path d="M31.992 32v-.001H32V20.263c0-5.741-1.236-10.164-7.948-10.164-3.227 0-5.392 1.771-6.276 3.449h-.093v-2.913h-6.364v21.364h6.627V21.42c0-2.785.528-5.479 3.977-5.479 3.399 0 3.449 3.179 3.449 5.657v10.401h6.62zM.528 10.636h6.635V32H.528V10.636zM3.843 0C1.722 0 0 1.721 0 3.843s1.721 3.879 3.843 3.879c2.121 0 3.843-1.757 3.843-3.879A3.846 3.846 0 003.843 0z"/></symbol>
<symbol id="icon-icon-send" viewBox="0 0 32 32">
<path fill="#fff" style="fill: var(--color1, #fff)" d="M32 0l-32 18 10.227 3.788 15.773-14.788-11.998 16.186 0.010 0.004-0.012-0.004v8.814l5.735-6.691 7.265 2.691 5-28z"></path>
</symbol>
<symbol id="icon-Faceb" viewBox="0 0 32 32"><path d="M21.329 5.313h2.921V.225C23.746.156 22.013 0 19.994 0c-4.212 0-7.097 2.649-7.097 7.519V12H8.249v5.688h4.648V32h5.699V17.689h4.46l.708-5.688h-5.169V8.082c.001-1.644.444-2.769 2.735-2.769z"/></symbol>
<symbol id="icon-envelope" viewBox="0 0 32 32">
<path  d="M29 4h-26c-1.654 0-3 1.256-3 2.801v16.803c0 1.544 1.346 2.801 3 2.801h26c1.654 0 3-1.256 3-2.801v-16.803c0-1.544-1.346-2.801-3-2.801zM29 5.867c0.136 0 0.265 0.026 0.383 0.072l-13.383 10.828-13.383-10.828c0.118-0.046 0.247-0.072 0.383-0.072h26zM29 24.537h-26c-0.552 0-1-0.418-1-0.934v-15.692l13.345 10.796c0.188 0.152 0.422 0.228 0.655 0.228s0.467-0.076 0.655-0.228l13.345-10.796v15.692c0 0.515-0.448 0.934-1 0.934z"></path>
</symbol>
<symbol id="icon-diagram-1" viewBox="0 0 32 32">
<path fill="#2196f3" style="fill: var(--color4, #2196f3)" d="M14.925 14.965h1.066v4.798h-1.066v-4.797z"></path>
<path fill="#2196f3" style="fill: var(--color4, #2196f3)" d="M19.19 17.097h1.066v2.665h-1.066v-2.665z"></path>
<path fill="#2196f3" style="fill: var(--color4, #2196f3)" d="M10.661 18.696h1.066v1.066h-1.066v-1.066z"></path>
<path fill="#2196f3" style="fill: var(--color4, #2196f3)" d="M7.463 18.163h1.066v1.599h-1.066v-1.599z"></path>
<path fill="#212121" style="fill: var(--color5, #212121)" d="M1.599 28.291h25.587c0.883 0 1.599-0.716 1.599-1.599v-2.132c0-0.883-0.716-1.599-1.599-1.599h-0.533v-13.293l3.028-2.868c0.703 0.346 1.553 0.136 2.013-0.499s0.396-1.508-0.152-2.068-1.42-0.644-2.065-0.198c-0.644 0.446-0.873 1.292-0.542 2.002l-2.281 2.163v-1.23c0-0.883-0.716-1.599-1.599-1.599h-21.322c-0.883 0-1.599 0.716-1.599 1.599v15.992h-0.533c-0.883 0-1.599 0.716-1.599 1.599v2.132c0 0.883 0.716 1.599 1.599 1.599zM30.384 4.837c0.294 0 0.533 0.239 0.533 0.533s-0.239 0.533-0.533 0.533c-0.294 0-0.533-0.239-0.533-0.533s0.239-0.533 0.533-0.533zM3.198 6.969c0-0.294 0.239-0.533 0.533-0.533h21.322c0.294 0 0.533 0.239 0.533 0.533v2.239l-1.066 1.013v-2.186c0-0.294-0.239-0.533-0.533-0.533h-19.19c-0.294 0-0.533 0.239-0.533 0.533v13.326c0 0.294 0.239 0.533 0.533 0.533h19.19c0.294 0 0.533-0.239 0.533-0.533v-9.674l1.066-1.010v12.284h-22.388v-15.992zM7.996 13.899c-0.721-0.002-1.354 0.478-1.546 1.174s0.105 1.433 0.725 1.801c0.62 0.368 1.41 0.276 1.928-0.226l1.853 0.93c0.215 0.108 0.476 0.057 0.636-0.123l3.939-4.431 3.872 2.901c0.208 0.156 0.498 0.139 0.686-0.039l3.365-3.188v8.131h-18.124v-12.26h18.124v2.66l-3.771 3.572-3.904-2.927c-0.222-0.166-0.534-0.135-0.718 0.072l-3.993 4.493-1.493-0.746c0.011-0.064 0.018-0.129 0.020-0.193 0-0.883-0.716-1.599-1.599-1.599zM8.529 15.498c0 0.294-0.239 0.533-0.533 0.533s-0.533-0.239-0.533-0.533c0-0.294 0.239-0.533 0.533-0.533s0.533 0.239 0.533 0.533zM11.727 24.027h5.331v0.533c0 0.294-0.239 0.533-0.533 0.533h-4.264c-0.294 0-0.533-0.239-0.533-0.533v-0.533zM1.066 24.56c0-0.294 0.239-0.533 0.533-0.533h9.062v0.533c0 0.883 0.716 1.599 1.599 1.599h4.264c0.883 0 1.599-0.716 1.599-1.599v-0.533h9.062c0.294 0 0.533 0.239 0.533 0.533v2.132c0 0.294-0.239 0.533-0.533 0.533h-25.587c-0.294 0-0.533-0.239-0.533-0.533v-2.132z"></path>
</symbol>
<symbol id="icon-clock-1" viewBox="0 0 32 32">
<path fill="#212121" style="fill: var(--color5, #212121)" d="M31.297 15.301c-0.002-8.452-6.855-15.303-15.308-15.301s-15.303 6.855-15.301 15.308c0.001 6.658 4.307 12.551 10.649 14.576 0.061 0.019 0.124 0.029 0.187 0.029 0.121-0 0.239-0.032 0.342-0.094 0.135-0.080 0.236-0.207 0.283-0.356l3.865-12.25c1.057-0.005 1.909-0.866 1.903-1.923s-0.866-1.909-1.923-1.903c-0.284 0.001-0.565 0.067-0.82 0.191l-5.106-5.107c-0.253-0.245-0.657-0.238-0.902 0.016-0.239 0.247-0.239 0.639 0 0.886l5.103 5.109c-0.392 0.799-0.168 1.764 0.536 2.309l-3.683 11.673c-7.278-2.681-11.004-10.754-8.323-18.032s10.754-11.004 18.032-8.323 11.004 10.754 8.323 18.032c-1.31 3.556-4.001 6.431-7.462 7.973l-0.398-1.874c-0.073-0.344-0.411-0.565-0.756-0.492-0.109 0.023-0.209 0.074-0.292 0.148l-3.837 3.426c-0.263 0.234-0.287 0.637-0.052 0.9 0.076 0.085 0.174 0.149 0.283 0.184l4.899 1.563c0.335 0.108 0.694-0.077 0.802-0.412 0.034-0.106 0.040-0.219 0.017-0.328l-0.391-1.839c5.664-2.388 9.342-7.942 9.329-14.089zM15.992 14.664c0.352 0 0.638 0.286 0.638 0.638s-0.286 0.638-0.638 0.638c-0.352 0-0.638-0.285-0.638-0.638s0.285-0.638 0.638-0.638zM18.093 29.528l2.184-1.948 0.603 2.84-2.787-0.892z"></path>
<path fill="#2196f3" style="fill: var(--color4, #2196f3)" d="M15.354 3.185v1.275c0 0.352 0.285 0.638 0.638 0.638s0.638-0.285 0.638-0.638v-1.275c0-0.352-0.286-0.638-0.638-0.638s-0.638 0.286-0.638 0.638z"></path>
<path fill="#2196f3" style="fill: var(--color4, #2196f3)" d="M3.876 14.664c-0.352 0-0.638 0.286-0.638 0.638s0.285 0.638 0.638 0.638h1.275c0.352 0 0.638-0.285 0.638-0.638s-0.285-0.638-0.638-0.638h-1.275z"></path>
<path fill="#2196f3" style="fill: var(--color4, #2196f3)" d="M28.108 15.939c0.352 0 0.638-0.285 0.638-0.638s-0.285-0.638-0.638-0.638h-1.275c-0.352 0-0.638 0.286-0.638 0.638s0.286 0.638 0.638 0.638h1.275z"></path>
</symbol>
<symbol id="icon-astronaut-1" viewBox="0 0 32 32">
<path fill="#2196f3" style="fill: var(--color4, #2196f3)" d="M31.974 4.524c-0.063-0.193-0.229-0.333-0.43-0.363l-1.91-0.278-0.855-1.731c-0.179-0.365-0.777-0.365-0.956 0l-0.855 1.731-1.91 0.278c-0.201 0.029-0.367 0.17-0.431 0.363-0.062 0.193-0.011 0.405 0.135 0.547l1.383 1.348-0.326 1.903c-0.034 0.2 0.048 0.402 0.212 0.522 0.166 0.121 0.382 0.135 0.562 0.040l1.709-0.899 1.709 0.899c0.078 0.041 0.164 0.061 0.249 0.061 0.11 0 0.221-0.034 0.314-0.102 0.164-0.119 0.246-0.322 0.212-0.522l-0.326-1.903 1.383-1.348c0.145-0.142 0.197-0.354 0.135-0.547zM29.511 5.851c-0.125 0.122-0.183 0.299-0.153 0.472l0.191 1.114-1-0.526c-0.078-0.041-0.163-0.061-0.249-0.061s-0.17 0.020-0.249 0.061l-1.001 0.526 0.191-1.114c0.030-0.173-0.028-0.349-0.153-0.472l-0.81-0.789 1.119-0.163c0.174-0.025 0.324-0.134 0.402-0.292l0.5-1.013 0.5 1.013c0.078 0.157 0.228 0.267 0.402 0.292l1.119 0.163-0.809 0.789z"></path>
<path fill="#2196f3" style="fill: var(--color4, #2196f3)" d="M26.133 20.522h-1.067v1.067h1.067v-1.067z"></path>
<path fill="#2196f3" style="fill: var(--color4, #2196f3)" d="M26.133 22.656h-1.067v1.067h1.067v-1.067z"></path>
<path fill="#2196f3" style="fill: var(--color4, #2196f3)" d="M27.2 21.589h-1.067v1.067h1.067v-1.067z"></path>
<path fill="#2196f3" style="fill: var(--color4, #2196f3)" d="M25.067 21.589h-1.067v1.067h1.067v-1.067z"></path>
<path fill="#2196f3" style="fill: var(--color4, #2196f3)" d="M22.4 26.389h-1.067v1.067h1.067v-1.067z"></path>
<path fill="#2196f3" style="fill: var(--color4, #2196f3)" d="M22.4 28.522h-1.067v1.067h1.067v-1.067z"></path>
<path fill="#2196f3" style="fill: var(--color4, #2196f3)" d="M23.467 27.456h-1.067v1.067h1.067v-1.067z"></path>
<path fill="#2196f3" style="fill: var(--color4, #2196f3)" d="M21.333 27.456h-1.067v1.067h1.067v-1.067z"></path>
<path fill="#2196f3" style="fill: var(--color4, #2196f3)" d="M16 24.256h-1.067v1.067h1.067v-1.067z"></path>
<path fill="#2196f3" style="fill: var(--color4, #2196f3)" d="M16 26.389h-1.067v1.067h1.067v-1.067z"></path>
<path fill="#2196f3" style="fill: var(--color4, #2196f3)" d="M17.067 25.322h-1.067v1.067h1.067v-1.067z"></path>
<path fill="#2196f3" style="fill: var(--color4, #2196f3)" d="M14.933 25.322h-1.067v1.067h1.067v-1.067z"></path>
<path fill="#2196f3" style="fill: var(--color4, #2196f3)" d="M5.866 6.122h-1.067v1.067h1.067v-1.067z"></path>
<path fill="#2196f3" style="fill: var(--color4, #2196f3)" d="M5.866 8.255h-1.067v1.067h1.067v-1.067z"></path>
<path fill="#2196f3" style="fill: var(--color4, #2196f3)" d="M6.933 7.189h-1.067v1.067h1.067v-1.067z"></path>
<path fill="#2196f3" style="fill: var(--color4, #2196f3)" d="M4.8 7.189h-1.067v1.067h1.067v-1.067z"></path>
<path fill="#212121" style="fill: var(--color5, #212121)" d="M24.715 14.159c-0.287-0.388-0.709-0.637-1.188-0.705-0.481-0.068-0.956 0.058-1.34 0.352l-1.252 0.96-1.898 1.417-1.358-0.541c2.421-1.086 4.114-3.508 4.114-6.32 0-3.823-3.123-6.933-6.961-6.933s-6.961 3.11-6.961 6.933c0 1.386 0.414 2.674 1.12 3.758l-2.764-0.024c-0.002 0-0.003 0-0.005 0-0.009 0-0.015 0.004-0.023 0.005-0.053 0.002-0.105 0.013-0.155 0.031-0.013 0.005-0.026 0.008-0.038 0.013-0.006 0.003-0.013 0.003-0.019 0.006l-3.233 1.596c-0.001 0-0.001 0-0.001 0.001l-1.893 0.911c-0.021 0.009-0.042 0.021-0.063 0.035-0.755 0.502-1.012 1.489-0.598 2.295 0.22 0.429 0.595 0.745 1.056 0.889 0.178 0.055 0.359 0.083 0.539 0.083 0.29 0 0.577-0.071 0.839-0.211l1.388-0.738 2.264-1.169 1.357-0.008-5.442 5.416c-0.001 0.001-0.001 0.001-0.002 0.001l-1.339 1.333c-0.316 0.315-0.49 0.732-0.49 1.178s0.174 0.863 0.49 1.179c0.325 0.323 0.752 0.485 1.179 0.485s0.854-0.162 1.18-0.485l1.314-1.309 1.741-1.3 0.901 0.897-1.762 1.754c-0 0.001-0.001 0.001-0.002 0.001l-1.339 1.333c-0.316 0.315-0.49 0.732-0.49 1.178s0.174 0.863 0.49 1.179c0.325 0.323 0.753 0.485 1.18 0.485s0.855-0.162 1.18-0.485l3.482-3.467c0.001-0.001 0.001-0.001 0.001-0.002l1.010-1-0.004-0.004c0.006-0.006 0.015-0.009 0.022-0.015l5.166-5.658 3.471 0.494c0.025 0.004 0.050 0.005 0.075 0.005 0.065 0 0.127-0.015 0.187-0.038 0.018-0.006 0.033-0.015 0.050-0.023 0.019-0.010 0.039-0.015 0.058-0.027l3.213-2.133c0.012-0.008 0.018-0.021 0.029-0.029 0.013-0.010 0.029-0.014 0.041-0.026l1.271-1.191c0.662-0.62 0.753-1.635 0.212-2.362zM2.13 17.77c-0.173 0.093-0.37 0.111-0.558 0.052-0.187-0.058-0.338-0.186-0.427-0.358-0.161-0.314-0.068-0.695 0.214-0.902l1.314-0.632 0.449 1.312-0.992 0.528zM5.628 15.942l-1.548 0.8-0.439-1.283 2.027-1.001-0.040 1.484zM20.727 9.322c0 0.918-0.219 1.785-0.599 2.559l-4.181-1.899c-0.044-0.573-0.341-1.075-0.788-1.388l1.464-4.86c2.378 0.756 4.105 2.974 4.105 5.588zM8.938 9.322c0-3.235 2.644-5.867 5.894-5.867 0.253 0 0.5 0.021 0.745 0.052l-1.432 4.754c-0.019-0.001-0.037-0.006-0.057-0.006-1.033 0-1.873 0.837-1.873 1.867s0.84 1.867 1.873 1.867c0.694 0 1.294-0.383 1.618-0.945l3.862 1.755c-1.075 1.446-2.795 2.39-4.737 2.39-3.25 0-5.894-2.632-5.894-5.867zM14.894 10.122c0 0.441-0.362 0.8-0.806 0.8s-0.806-0.359-0.806-0.8c0-0.441 0.362-0.8 0.806-0.8s0.806 0.359 0.806 0.8zM2.465 25.146c-0.236 0.234-0.619 0.234-0.854 0.001-0.114-0.114-0.176-0.263-0.176-0.423s0.062-0.309 0.176-0.421l0.962-0.958 0.851 0.848-0.959 0.955zM5.679 28.88c-0.236 0.234-0.619 0.235-0.855 0.001-0.114-0.114-0.176-0.263-0.176-0.423s0.062-0.309 0.176-0.421l0.963-0.959 0.852 0.848-0.96 0.955zM9.16 25.411c-0.001 0-0.001 0-0.002 0.001l-1.765 1.76-0.852-0.848 1.763-1.755c0 0 0 0 0-0s0.001-0.001 0.002-0.001c0.040-0.040 0.065-0.088 0.090-0.135 0.007-0.014 0.020-0.026 0.026-0.040 0.017-0.041 0.019-0.085 0.026-0.129 0.003-0.025 0.014-0.047 0.014-0.073 0-0.036-0.013-0.070-0.020-0.106-0.006-0.032-0.006-0.065-0.019-0.095-0.020-0.050-0.055-0.094-0.091-0.138-0.010-0.012-0.014-0.027-0.025-0.038 0 0 0 0-0.001 0s-0.001-0.002-0.001-0.002l-1.607-1.6c-0.017-0.017-0.039-0.024-0.058-0.038-0.028-0.022-0.055-0.042-0.087-0.058-0.030-0.015-0.061-0.024-0.093-0.033-0.034-0.010-0.067-0.017-0.103-0.020-0.033-0.002-0.063 0.001-0.095 0.005-0.036 0.004-0.069 0.009-0.104 0.020-0.034 0.011-0.063 0.027-0.094 0.045-0.020 0.011-0.042 0.015-0.061 0.029l-1.773 1.324-0.901-0.897 2.399-2.386 4.361 4.289-0.928 0.919zM15.979 18.394c-0.015-0.002-0.030 0.004-0.045 0.003-0.039-0.002-0.076 0.001-0.115 0.007-0.030 0.005-0.059 0.011-0.088 0.021-0.034 0.012-0.065 0.028-0.097 0.047-0.030 0.018-0.057 0.037-0.083 0.061-0.013 0.011-0.028 0.017-0.040 0.029l-4.698 5.146-4.328-4.257 2.833-2.818c0.209-0.208 0.21-0.546 0.002-0.755-0.105-0.105-0.243-0.157-0.381-0.156v-0.001l-2.219 0.013 0.028-1.607 3.104 0.027c1.265 1.294 3.029 2.101 4.981 2.101 0.437 0 0.864-0.045 1.279-0.123 0.040 0.032 0.079 0.065 0.13 0.085l2.41 0.96 0.152 0.758 0.178 0.885-3.003-0.427zM20.020 18.572l-0.313-1.558 1.446-1.080 0.947 1.257-2.080 1.381zM23.774 15.741l-0.838 0.785-0.931-1.236 0.831-0.637c0.155-0.119 0.351-0.168 0.543-0.143 0.193 0.027 0.364 0.128 0.48 0.284 0.217 0.292 0.18 0.699-0.085 0.947z"></path>
<path fill="#212121" style="fill: var(--color5, #212121)" d="M13.602 18.544l-2.143-2.133c-0.207-0.207-0.545-0.207-0.753 0l-2.142 2.133c-0.1 0.101-0.157 0.236-0.157 0.378s0.056 0.278 0.157 0.378l2.142 2.133c0.104 0.103 0.241 0.155 0.377 0.155s0.273-0.052 0.376-0.155l2.143-2.133c0.1-0.1 0.157-0.236 0.157-0.378s-0.057-0.278-0.157-0.378zM11.083 20.303l-1.387-1.381 1.387-1.381 1.387 1.381-1.387 1.381z"></path>
<path fill="#212121" style="fill: var(--color5, #212121)" d="M17.164 5.071l-0.258 1.036c0.071 0.018 1.738 0.452 1.738 2.149h1.067c-0-2.017-1.666-2.965-2.547-3.185z"></path>
<path fill="#212121" style="fill: var(--color5, #212121)" d="M19.711 9.322h-1.067v1.067h1.067v-1.067z"></path>
</symbol>
<symbol id="icon-antenna-1" viewBox="0 0 32 32">
<path fill="#212121" style="fill: var(--color5, #212121)" d="M30.773 22.098l-8.443-8.505 0.937-4.615c0.242 0.094 0.499 0.144 0.758 0.146h0.006c1.192 0.014 2.17-0.941 2.184-2.133s-0.941-2.17-2.133-2.184c-1.192-0.014-2.17 0.941-2.184 2.133-0.003 0.255 0.039 0.509 0.125 0.749l-4.96 0.605-8.091-8.133c-0.099-0.101-0.235-0.159-0.377-0.16-0.14 0.001-0.274 0.056-0.373 0.155l-1.513 1.504c-0.208 0.208-0.208 0.546 0 0.754l0.814 0.826c-3.153 5.798-2.129 12.978 2.519 17.663 0.043 0.041 0.092 0.074 0.146 0.098-0.034 0.18-0.051 0.364-0.052 0.547v6.187h-6.4c-1.472 0.002-2.665 1.195-2.667 2.667v1.067c0 0.295 0.239 0.533 0.533 0.533h24.533c0.295 0 0.533-0.239 0.533-0.533v-1.067c-0.002-1.472-1.195-2.665-2.667-2.667h-6.4v-2.742c1.003 0.21 2.024 0.317 3.049 0.32 2.458-0.003 4.877-0.615 7.040-1.783l0.818 0.823c0.099 0.101 0.235 0.159 0.377 0.16 0.14-0.001 0.274-0.056 0.373-0.155l1.513-1.504c0.208-0.208 0.208-0.546 0-0.754zM23.28 6.233c0.418-0.415 1.093-0.414 1.508 0.004s0.414 1.093-0.004 1.508c-0.2 0.199-0.47 0.31-0.752 0.31h-0.003c-0.589-0.003-1.064-0.483-1.061-1.072 0.002-0.282 0.115-0.552 0.314-0.751h-0.002zM22.024 9.738l-0.598 2.946-1.175-1.182 1.774-1.763zM21.419 8.836l-1.92 1.909-1.485-1.493 3.405-0.415zM24.004 28.8c0.884 0 1.6 0.716 1.6 1.6v0.533h-23.467v-0.533c0-0.884 0.716-1.6 1.6-1.6h20.267zM16.537 26.667v1.067h-5.333v-1.067h5.333zM11.204 25.6v-4.053c0-1.294 1.196-2.347 2.667-2.347s2.667 1.053 2.667 2.347v4.053h-5.333zM17.604 23.904v-2.357c0-1.882-1.675-3.413-3.733-3.413-1.331-0.020-2.576 0.657-3.281 1.786-4.058-4.274-4.971-10.645-2.279-15.887l18.602 18.708c-2.872 1.461-6.165 1.873-9.309 1.163zM28.893 23.22l-21.057-21.181 0.755-0.752 7.935 7.98c0.004 0 0.006 0.007 0.010 0.010l13.115 13.191-0.757 0.752z"></path>
<path fill="#2196f3" style="fill: var(--color4, #2196f3)" d="M13.876 20.267h-0.005c-0.884-0.001-1.601 0.714-1.602 1.598s0.714 1.601 1.598 1.602h0.005c0.884 0.001 1.601-0.714 1.602-1.598s-0.714-1.601-1.598-1.602zM14.249 22.245c-0.1 0.1-0.236 0.156-0.378 0.155-0.295-0.002-0.532-0.242-0.531-0.536 0.001-0.141 0.057-0.276 0.157-0.375s0.233-0.154 0.373-0.155c0.295 0.002 0.532 0.241 0.53 0.536-0.001 0.141-0.057 0.276-0.157 0.375h0.005z"></path>
</symbol>
<symbol id="icon-vector-3" viewBox="0 0 32 32"><path d="M32 3.223L28.777 0 16 12.777 3.223 0 0 3.223 12.777 16 0 28.777 3.223 32 16 19.223 28.777 32 32 28.777 19.223 16 32 3.223z"/></symbol>
<symbol id="icon-vector" viewBox="0 0 32 32"><path d="M16 16c4.42 0 8-3.58 8-8s-3.58-8-8-8-8 3.58-8 8 3.58 8 8 8zm0 4c-5.34 0-16 2.68-16 8v2c0 1.1.9 2 2 2h28c1.1 0 2-.9 2-2v-2c0-5.32-10.66-8-16-8z"/></symbol>
<symbol id="icon-vector-1" viewBox="0 0 32 32"><path d="M27.419 20.852l-4.202-.48a3.294 3.294 0 00-2.713.943l-3.044 3.044A24.888 24.888 0 016.559 13.458l3.06-3.06a3.293 3.293 0 00.943-2.713l-.48-4.168A3.31 3.31 0 006.79.589H3.928C2.059.589.504 2.144.62 4.013c.877 14.126 12.174 25.407 26.284 26.284 1.869.116 3.424-1.439 3.424-3.308v-2.861c.016-1.671-1.241-3.077-2.911-3.275z"/></symbol>
<symbol id="icon-vector-2" viewBox="0 0 43 32"><path d="M37.333 0h-32c-2.2 0-3.98 1.8-3.98 4l-.02 24c0 2.2 1.8 4 4 4h32c2.2 0 4-1.8 4-4V4c0-2.2-1.8-4-4-4zm-.8 8.5l-14.14 8.84c-.64.4-1.48.4-2.12 0L6.133 8.5c-.5-.32-.8-.86-.8-1.44 0-1.34 1.46-2.14 2.6-1.44l13.4 8.38 13.4-8.38c1.14-.7 2.6.1 2.6 1.44 0 .58-.3 1.12-.8 1.44z"/></symbol>

<symbol id="icon-plane" viewBox="0 0 32 32"><path d="M32 0L0 18l10.227 3.788L26 7 14.002 23.186l.01.004-.012-.004V32l5.735-6.691L27 28l5-28z"/></symbol>
<symbol id="icon-icon-check-on" viewBox="0 0 34 32">
<path  d="M5.32 1.279h24c2.209 0 4 1.791 4 4v22c0 2.209-1.791 4-4 4h-24c-2.209 0-4-1.791-4-4v-22c0-2.209 1.791-4 4-4z"></path>
<path  d="M9.234 16.782l-0.138-0.131-2.067 1.958 7.282 6.947 15.298-14.594-2.053-1.959-13.245 12.623-5.077-4.844z"></path>
</symbol>
<symbol id="menu" viewBox="0 0 32 32">
<path fill="#fff"  d="M6.4 11.733v-2.133h19.2v2.133h-19.2zM6.4 17.067h19.2v-2.133h-19.2v2.133zM6.4 22.4h19.2v-2.133h-19.2v2.133z"></path>
</symbol>
<svg aria-hidden="true" style="position:absolute;width:0;height:0" xmlns="http://www.w3.org/2000/svg" overflow="hidden"><defs><symbol id="facebook" viewBox="0 0 32 32"><path d="M21.33 5.31h2.92V.23C23.75.15 22.01 0 19.99 0c-4.2 0-7.1 2.65-7.1 7.52V12H8.26v5.69h4.65V32h5.7V17.69h4.46l.7-5.69H18.6V8.08c0-1.64.45-2.77 2.74-2.77z"/></symbol><symbol id="instagram" viewBox="0 0 32 32"><path d="M31.97 9.4a11.7 11.7 0 00-.74-3.87 7.8 7.8 0 00-1.85-2.84A7.87 7.87 0 0026.54.84C25.52.45 24.36.17 22.66.1 20.95.02 20.4 0 16.06 0s-4.89.02-6.6.1C7.76.16 6.6.43 5.58.83a7.8 7.8 0 00-2.83 1.85A7.87 7.87 0 00.9 5.52C.5 6.54.23 7.7.16 9.4c-.08 1.71-.1 2.26-.1 6.6s.02 4.9.1 6.6c.07 1.7.34 2.87.73 3.88a7.9 7.9 0 001.85 2.84c.8.81 1.77 1.44 2.84 1.84 1.02.4 2.18.67 3.88.75 1.7.07 2.25.09 6.6.09s4.88-.02 6.59-.1a11.7 11.7 0 003.88-.74 8.18 8.18 0 004.68-4.68c.4-1.02.67-2.18.75-3.88.07-1.7.1-2.25.1-6.6s-.02-4.89-.09-6.6zm-2.88 13.07a8.76 8.76 0 01-.55 2.97 5.31 5.31 0 01-3.04 3.04c-.56.22-1.41.48-2.97.55-1.69.07-2.2.1-6.46.1s-4.79-.02-6.47-.1a8.76 8.76 0 01-2.97-.55 4.93 4.93 0 01-1.84-1.2 4.97 4.97 0 01-1.19-1.83 8.81 8.81 0 01-.55-2.97c-.07-1.69-.1-2.2-.1-6.47s.03-4.78.1-6.46c.07-1.56.33-2.4.55-2.97.26-.7.66-1.32 1.2-1.84a4.97 4.97 0 011.84-1.19A8.81 8.81 0 019.6 3c1.69-.07 2.2-.1 6.46-.1 4.28 0 4.78.03 6.47.1 1.56.07 2.4.33 2.96.55.7.26 1.33.66 1.84 1.2.53.51.94 1.14 1.2 1.83.22.57.48 1.42.55 2.97.07 1.69.1 2.2.1 6.46s-.03 4.77-.1 6.46z"/><path d="M16.06 7.78a8.22 8.22 0 100 16.45 8.22 8.22 0 000-16.45zm0 13.55a5.33 5.33 0 110-10.66 5.33 5.33 0 010 10.67zM26.52 7.46a1.92 1.92 0 11-3.83 0 1.92 1.92 0 013.83 0z"/></symbol><symbol id="linkedin" viewBox="0 0 32 32"><path d="M32 32V20.26c0-5.74-1.24-10.16-7.95-10.16-3.23 0-5.39 1.77-6.27 3.45h-.1v-2.92h-6.36V32h6.63V21.42c0-2.79.52-5.48 3.97-5.48 3.4 0 3.45 3.18 3.45 5.66V32H32zM.53 10.64h6.63V32H.53V10.64zM3.84 0C1.72 0 0 1.72 0 3.84s1.72 3.88 3.84 3.88A3.88 3.88 0 007.7 3.84 3.85 3.85 0 003.84 0z"/></symbol><symbol id="logo" viewBox="0 0 39 32"><path d="M22.37 9.64l-.75-.57a.57.57 0 00-.8.08l-10.36 11.9.16.17 2.57-2.36a.4.4 0 01-.24-.45.4.4 0 01.4-.31.4.4 0 01.37.27l3.38-3.14a.29.29 0 01.36 0l.17.13a.29.29 0 00.39-.05l4.42-4.96a.47.47 0 00.07-.56.47.47 0 00-.14-.15z"/><path d="M27.24 12.99a23.1 23.1 0 01-7.5 3.51c-2.67.68-5.4 1.09-8.15 1.21.05.41.15.8.3 1.2 1.55 1.4 13.25-1 15.54-3.78.48-.58-.19-2.14-.19-2.14zm-13.9 5.87a.39.39 0 01-.38-.47.4.4 0 01.3-.3c.08-.02.16 0 .23.02s.13.08.18.14.06.14.06.22a.39.39 0 01-.11.28.38.38 0 01-.28.1zM2.29 12.17l.09-.4 1.48.34c.13.23.2.47.23.73a2.46 2.46 0 01-.55 1.8c-.23.27-.54.47-.88.58a2.08 2.08 0 01-2.03-.47 1.9 1.9 0 01-.54-.9c-.1-.37-.1-.76 0-1.14.06-.28.17-.54.32-.79.15-.22.35-.4.57-.53l.21.32a1.63 1.63 0 00-.75 1.1c-.08.3-.07.6.01.9a1.6 1.6 0 001.22 1.14c.3.08.6.08.88 0a1.67 1.67 0 001.11-1.26c.1-.37.07-.75-.07-1.1l-1.3-.33zM5.52 8.57l-1.33 1.78.57 1.02-.26.35-2.12-3.85.25-.34 4.3.93-.27.35-1.14-.24zm-.38-.09l-2.28-.51L4 10.02l1.14-1.54zM5.14 4.88l.35-.25 2.17 2.91 1.8-1.34.21.29-2.13 1.6-2.4-3.2zM8.74 2.5l.39-.17 1.5 3.3 2.05-.92.14.33-2.42 1.1L8.74 2.5zM16.27 3.82l.09.36-2.75.64-.92-3.9L15.37.3l.08.36-2.29.53.33 1.38 2-.47.1.35-2.02.47.34 1.45 2.37-.55zM20.2 3.96l-.95-1.26h-.32l-1.08.04L17.9 4h-.42l-.13-4L18.86 0c.43-.04.86.08 1.2.33a1.26 1.26 0 01.48.99c.01.28-.06.56-.21.8-.17.23-.4.4-.67.49l1 1.33-.46.02zm-.4-1.88a.92.92 0 00.3-.75.93.93 0 00-.35-.73 1.39 1.39 0 00-.9-.23L17.78.4l.07 2 1.06-.04c.33.01.65-.09.9-.29zM23.22 2.9l-.2 1.36-.42-.06.21-1.34L21.63 0l.44.07 1.01 2.43L24.8.5l.4.08-1.98 2.33zM28.87 2.66l.5.64-.22.17-.5-.66-.3.75-.25-.1.32-.75-.82.1v-.27l.81-.09-.5-.64.22-.18.44.66.31-.76.25.1-.3.77.83-.11v.28l-.78.09zM30.78 7.26c-.13-.2-.22-.44-.24-.69l.33-.15c.03.23.1.45.22.64.13.22.3.42.5.57.2.2.46.32.74.36a.62.62 0 00.64-.4.52.52 0 00.02-.2 1.06 1.06 0 00-.13-.4c-.11-.18-.23-.35-.35-.51-.15-.2-.3-.41-.41-.63-.1-.16-.15-.35-.15-.54 0-.2.08-.41.22-.57.12-.15.29-.26.47-.32.21-.06.43-.06.64 0 .26.08.51.22.72.4.18.15.34.32.47.51.12.17.2.37.27.57l-.33.17a2.04 2.04 0 00-.25-.54c-.11-.14-.24-.28-.38-.39-.2-.2-.46-.32-.74-.35a.61.61 0 00-.54.24c-.05.05-.08.1-.1.18s-.04.13-.03.2c.01.15.06.29.14.41l.35.51c.15.2.29.4.4.62.1.16.16.34.16.53 0 .22-.08.42-.22.57a1.02 1.02 0 01-1.12.33 2.12 2.12 0 01-.73-.41 2.6 2.6 0 01-.57-.7zM36.53 8.1l-.8-1.15.3-.2 1.85 2.64-.3.21-.8-1.14-2.99 2.09-.24-.35 2.98-2.1zM35.25 12.8a2.02 2.02 0 011.5-1.37c.36-.08.73-.07 1.08.04a2.03 2.03 0 011.36 1.56c.1.36.1.74 0 1.1-.1.35-.3.66-.57.9a2.12 2.12 0 01-2.04.44c-.34-.1-.64-.3-.87-.57a2.16 2.16 0 01-.49-.99 2.2 2.2 0 01.03-1.12zM36 14.6c.2.22.44.38.71.46.29.09.59.1.88.03s.56-.2.78-.4a1.62 1.62 0 00.48-1.6 1.63 1.63 0 00-1.13-1.26 1.7 1.7 0 00-.89.01c-.29.06-.56.2-.77.4-.22.19-.37.44-.45.72-.08.29-.08.6 0 .88.06.29.2.55.39.76zM34.82 19.43l1.48-.57c0-.1.03-.2.06-.32l.28-1.03-1.21-.32.1-.4 3.87 1.03-.39 1.45c-.09.42-.32.8-.66 1.06a1.22 1.22 0 01-1.09.16 1.24 1.24 0 01-.97-1.2l-1.58.57.1-.43zm1.91.16a1.03 1.03 0 001.05.52c.13-.02.27-.07.39-.14.25-.2.42-.49.48-.8l.28-1.03-1.94-.52-.28 1.03c-.1.3-.1.64.02.94zM32.77 23.1l-.3-.22 1.72-2.25 3.19 2.42-1.66 2.18-.29-.22 1.4-1.84-1.14-.87-1.25 1.65-.29-.21 1.28-1.65-1.18-.9-1.48 1.92zM31.43 27.66l-.82.05v-.28h.82l-.44-.68.22-.14.44.68.35-.76.25.13-.4.72.82-.05v.28h-.83l.44.68-.22.14-.43-.68-.38.74-.24-.14.42-.69zM24 27.2l.7.39a1.78 1.78 0 011.13-.9c.23-.08.47-.1.7-.08.21.02.41.09.58.2a.9.9 0 01.32.46c.07.23.06.47-.04.7-.14.29-.33.55-.57.78.2.1.37.23.52.38a.76.76 0 01.09 1.06 1.1 1.1 0 01-.64.44 1 1 0 01-.71 0 .72.72 0 01-.41-.49.77.77 0 01.04-.57c.13-.26.3-.5.5-.7l-1.37-.77a2.7 2.7 0 00-.04.82h-.34c-.03-.34.01-.67.11-1l-.72-.4.15-.31zm1 .58l1.5.84c.2-.2.37-.42.5-.66a.72.72 0 000-.51.62.62 0 00-.4-.43c-.24-.08-.5-.08-.74 0a1.37 1.37 0 00-.89.74l.02.02zm2.14 2.28a.52.52 0 00.05-.42.7.7 0 00-.18-.3c-.15-.12-.3-.22-.48-.31-.17.17-.32.36-.45.57a.58.58 0 00-.04.42.48.48 0 00.25.3c.14.06.3.06.45 0 .15-.04.29-.13.38-.26h.02zM17.03 31.61l.08-4h.41l-.06 3.2 1.62-2.66h.2l1.52 2.7.06-3.18h.4l-.07 4h-.35l-1.68-2.99-1.78 2.94-.35-.01zM15.05 27.43a1.95 1.95 0 01.52 1.98c-.1.35-.29.67-.55.93-.25.25-.57.42-.92.5-.36.08-.74.07-1.1-.03a2.15 2.15 0 01-.97-.52 1.92 1.92 0 01-.53-.9 2.11 2.11 0 011.48-2.53 2.2 2.2 0 011.1.03c.36.1.7.28.97.54zm-1.95-.2c-.28.06-.54.2-.74.4-.21.22-.36.48-.43.77-.08.29-.08.59 0 .87.06.28.2.54.41.73a1.76 1.76 0 001.66.44c.28-.06.54-.2.74-.4a1.68 1.68 0 00.44-1.65 1.6 1.6 0 00-.43-.73 1.71 1.71 0 00-.77-.43c-.3-.08-.6-.08-.88 0zM8.77 24.57l.16 1.57c.1.04.19.1.28.15l.93.53.63-1.1.37.2-2 3.45-1.3-.75c-.39-.2-.69-.52-.86-.91a1.25 1.25 0 01.13-1.09c.13-.25.34-.45.6-.57.26-.1.55-.13.82-.06l-.17-1.68.41.26zm-.65 1.8a1.04 1.04 0 00-.77.88c-.02.14 0 .28.03.41.14.3.37.54.66.68l.92.53 1-1.71-.92-.53c-.26-.2-.59-.3-.92-.28v.03zM5.39 21.9l.26-.27 1.97 2.03-2.86 2.8-1.9-1.97.26-.26 1.62 1.66.97-.99-1.41-1.47.27-.26 1.45 1.48 1.06-1.03-1.7-1.73zM1.14 19.65l.14-.8.27.05-.16.8.77-.27.09.25-.77.26.63.54-.18.2-.61-.57-.15.81-.27-.05.16-.8-.77.27-.08-.23.76-.26-.63-.54.19-.2.61.54z"/></symbol><symbol id="mail" viewBox="0 0 32 32"><path fill="none" stroke="var(--color1, #9da4bd)" stroke-linejoin="round" stroke-linecap="round" stroke-width="1.33" d="M6.4 6.67h19.2C26.92 6.67 28 7.72 28 9v14a2.37 2.37 0 01-2.4 2.33H6.4A2.37 2.37 0 014 23V9a2.37 2.37 0 012.4-2.33z"/><path fill="none" stroke="var(--color1, #9da4bd)" stroke-linejoin="round" stroke-linecap="round" stroke-width="1.33" d="M26.67 9.33l-10.67 8-10.67-8"/></symbol><symbol id="map-pin" viewBox="0 0 32 32"><path fill="none" stroke="var(--color1, #9da4bd)" stroke-linejoin="round" stroke-linecap="round" stroke-width="1.33" d="M26.67 13.82C26.67 21.45 16 28 16 28S5.33 21.46 5.33 13.82C5.33 8.4 10.11 4 16 4s10.67 4.4 10.67 9.82v0z"/><path fill="none" stroke="var(--color1, #9da4bd)" stroke-linejoin="round" stroke-linecap="round" stroke-width="1.33" d="M16 18.67a4 4 0 100-8 4 4 0 000 8z"/></symbol><symbol id="phone" viewBox="0 0 32 32"><path fill="none" stroke="var(--color1, #9da4bd)" stroke-linejoin="round" stroke-linecap="round" stroke-width="1.33" d="M26.67 21.34v3.21a2.15 2.15 0 01-2.34 2.15 21.24 21.24 0 01-9.26-3.3 20.91 20.91 0 01-6.44-6.43 21.22 21.22 0 01-3.29-9.3 2.14 2.14 0 012.14-2.34h3.21c1.08 0 2 .78 2.15 1.85.13 1.03.39 2.04.75 3.01.3.79.1 1.67-.48 2.26l-1.37 1.37a17.16 17.16 0 006.44 6.43l1.36-1.36c.6-.59 1.48-.78 2.27-.48.97.36 1.98.61 3.01.75a2.14 2.14 0 011.84 2.18z"/></symbol><symbol id="twitter" viewBox="0 0 32 32"><path d="M32 6.08c-1.19.52-2.46.87-3.78 1.03a6.52 6.52 0 002.89-3.62 13.11 13.11 0 01-4.16 1.59 6.57 6.57 0 00-11.2 5.98A18.57 18.57 0 012.23 4.2a6.57 6.57 0 002.02 8.77 6.48 6.48 0 01-2.97-.81v.07a6.59 6.59 0 005.26 6.44 6.55 6.55 0 01-2.97.1 6.62 6.62 0 006.13 4.58 13.18 13.18 0 01-9.7 2.7A18.47 18.47 0 0010.06 29c12.08 0 18.68-10 18.68-18.67 0-.29-.01-.57-.03-.85 1.3-.92 2.4-2.07 3.29-3.4z"/></symbol><symbol id="close" viewBox="0 0 32 32">
<path fill="#000" d="M23.733 10.304l-1.504-1.504-5.963 5.963-5.963-5.963-1.504 1.504 5.963 5.963-5.963 5.963 1.504 1.504 5.963-5.963 5.963 5.963 1.504-1.504-5.963-5.963 5.963-5.963z"></path>
</symbol>

</defs>
</svg>
